<svg preserveAspectRatio="none" overflow="visible" style="display: block;" width="16" height="13.8667" viewBox="0 0 16 13.8667" fill="none" xmlns="http://www.w3.org/2000/svg">
<g id="Group">
<path id="Vector" fill-rule="evenodd" clip-rule="evenodd" d="M3.81907 0C2.01151 0 0.413842 1.30256 0.20012 3.13848C-0.0674269 5.4368 -0.0664856 7.35077 0.201626 9.65754C0.415157 11.4947 2.01304 12.8 3.82261 12.8H9.06666C9.36122 12.8 9.6 12.5612 9.6 12.2667C9.6 11.9721 9.36122 11.7333 9.06666 11.7333H3.82261C2.51408 11.7333 1.40762 10.7945 1.26116 9.5344C1.04256 7.65365 1.00812 6.05442 1.15839 4.26667H14.8507C14.9286 5.154 14.9513 5.99611 14.9193 6.91472C14.909 7.20909 15.1393 7.45608 15.4337 7.46634C15.728 7.47661 15.975 7.24632 15.9853 6.95195C16.0316 5.62493 15.9684 4.448 15.7975 3.10547C15.5655 1.28371 13.9706 0 12.1755 0H3.81907ZM14.7339 3.2C14.5566 1.97189 13.4615 1.06667 12.1755 1.06667H3.81907C2.53317 1.06667 1.44253 1.97309 1.26764 3.2H14.7339Z" fill="#F0792E"/>
<path id="Vector_2" d="M5.06667 9.86666C5.36123 9.86666 5.6 9.62789 5.6 9.33333C5.6 9.03877 5.36123 8.8 5.06667 8.8H2.93333C2.63877 8.8 2.4 9.03877 2.4 9.33333C2.4 9.62789 2.63877 9.86666 2.93333 9.86666H5.06667Z" fill="#F7B68D"/>
<path id="Vector_3" fill-rule="evenodd" clip-rule="evenodd" d="M11.2 8.8V9.42794C10.6756 9.61648 10.2606 10.0735 10.1896 10.6791C10.1143 11.3207 10.1147 11.8762 10.19 12.5195C10.2842 13.3233 10.9842 13.8667 11.7429 13.8667H14.3888C15.1423 13.8667 15.8404 13.3303 15.9392 12.5311C16.02 11.8773 16.0203 11.3154 15.9399 10.6667C15.8656 10.0663 15.4529 9.61544 14.9333 9.42832V8.8C14.9333 7.76906 14.0976 6.93333 13.0667 6.93333C12.0357 6.93333 11.2 7.76906 11.2 8.8ZM13.8667 8.8V9.33333H12.2667V8.8C12.2667 8.35816 12.6248 8 13.0667 8C13.5085 8 13.8667 8.35816 13.8667 8.8ZM11.249 10.8033C11.2743 10.5875 11.4726 10.4 11.7416 10.4H14.3908C14.6583 10.4 14.855 10.5851 14.8814 10.7978C14.9509 11.3587 14.9507 11.8326 14.8806 12.4002C14.8541 12.6144 14.6565 12.8 14.3888 12.8H11.7429C11.4738 12.8 11.2749 12.6122 11.2495 12.3954C11.1837 11.834 11.1835 11.3619 11.249 10.8033Z" fill="#F0792E"/>
</g>
</svg>
