<svg preserveAspectRatio="none" overflow="visible" style="display: block;" width="24" height="24" viewBox="0 0 24 24" fill="none" xmlns="http://www.w3.org/2000/svg">
<g id="Line/Notify">
<path id="Vector" d="M12 5.99L19.53 19H4.47L12 5.99ZM2.74 18C1.97 19.33 2.93 21 4.47 21H19.53C21.07 21 22.03 19.33 21.26 18L13.73 4.99C12.96 3.66 11.04 3.66 10.27 4.99L2.74 18ZM11 11V13C11 13.55 11.45 14 12 14C12.55 14 13 13.55 13 13V11C13 10.45 12.55 10 12 10C11.45 10 11 10.45 11 11ZM11 16H13V18H11V16Z" fill="#333638"/>
</g>
</svg>
