<svg preserveAspectRatio="none" overflow="visible" style="display: block;" width="15.9868" height="17.6658" viewBox="0 0 15.9868 17.6658" fill="none" xmlns="http://www.w3.org/2000/svg">
<g id="Layer 2">
<path id="Vector" d="M13.6339 1.88236H10.9534L8.24847 0.0790633C8.17095 0.0275057 8.07992 0 7.98682 0C7.89372 0 7.8027 0.0275057 7.72517 0.0790633L5.02023 1.88236H2.33976C2.21496 1.88236 2.09526 1.93194 2.00701 2.02019C1.91876 2.10844 1.86918 2.22814 1.86918 2.35295V6.43761L0.128 8.17878C0.102816 8.20505 0.0807121 8.2341 0.0621177 8.26537C0.0570073 8.27312 0.0525976 8.28131 0.0489412 8.28984C0.0345077 8.31474 0.0231314 8.34128 0.0150588 8.3689C0.0144928 8.37893 0.0144928 8.38899 0.0150588 8.39902C0.00542779 8.43591 0.000370231 8.47384 3.62188e-08 8.51196V17.1953C-4.80157e-05 17.3178 0.0477188 17.4356 0.133141 17.5234C0.218564 17.6113 0.334902 17.6624 0.457412 17.6658H15.5162C15.641 17.6658 15.7607 17.6163 15.849 17.528C15.9372 17.4398 15.9868 17.3201 15.9868 17.1953V8.51572C15.9864 8.4776 15.9814 8.43967 15.9718 8.40278C15.9723 8.39275 15.9723 8.3827 15.9718 8.37267C15.9637 8.34505 15.9523 8.3185 15.9379 8.29361C15.9342 8.28508 15.9298 8.27689 15.9247 8.26914C15.9061 8.23786 15.884 8.20881 15.8588 8.18255L14.1045 6.43761V2.35295C14.1045 2.22814 14.0549 2.10844 13.9666 2.02019C13.8784 1.93194 13.7587 1.88236 13.6339 1.88236ZM7.98682 1.0353L9.25553 1.88236H6.71812L7.98682 1.0353ZM2.81035 2.82353H13.1633V9.43055L7.98682 12.6663L2.81035 9.43055V2.82353ZM1.86918 8.84325L1.21035 8.42914L1.87106 7.76843L1.86918 8.84325ZM15.0456 16.7247H0.928V9.36467L2.08941 10.0913L7.73647 13.6188C7.81184 13.6649 7.89848 13.6892 7.98682 13.6892C8.07517 13.6892 8.1618 13.6649 8.23717 13.6188L13.8842 10.0894L15.0456 9.36467V16.7247ZM14.7633 8.42914L14.1026 8.84325V7.76843L14.7633 8.42914Z" fill="#F0792E"/>
<path id="Vector_2" d="M7.97917 10.3077C9.81001 10.3077 11.2995 8.81819 11.2995 6.98735C11.2995 5.15651 9.81001 3.66699 7.97917 3.66699C6.14833 3.66699 4.65881 5.15651 4.65881 6.98735C4.65881 8.81819 6.14833 10.3077 7.97917 10.3077ZM7.97917 4.69856C9.2412 4.69856 10.268 5.72532 10.268 6.98735C10.268 8.24938 9.2412 9.27614 7.97917 9.27614C6.71715 9.27614 5.69038 8.24938 5.69038 6.98735C5.69038 5.72532 6.71715 4.69856 7.97917 4.69856ZM6.80857 7.48102C6.60712 7.27958 6.60712 6.95302 6.80857 6.75157C7.00998 6.55016 7.33657 6.55016 7.53798 6.75157L7.65684 6.87043L8.58161 5.94566C8.78302 5.74425 9.10961 5.74425 9.31102 5.94566C9.51247 6.14711 9.51247 6.47366 9.31102 6.67511L8.02156 7.96457C7.82015 8.16598 7.49356 8.16598 7.29215 7.96457L6.80857 7.48102Z" fill="#F7B68D"/>
</g>
</svg>
