<svg preserveAspectRatio="none" overflow="visible" style="display: block;" width="24" height="24" viewBox="0 0 24 24" fill="none" xmlns="http://www.w3.org/2000/svg">
<g id="SIP-Mutual funds">
<path id="Vector" d="M5.23305 19.1087C4.78396 19.1087 4.39951 18.9488 4.07971 18.629C3.7599 18.3092 3.6 17.9247 3.6 17.4756V6.04427C3.6 5.59518 3.7599 5.21073 4.07971 4.89092C4.39951 4.57112 4.78396 4.41122 5.23305 4.41122H16.6644C17.1135 4.41122 17.4979 4.57112 17.8177 4.89092C18.1375 5.21073 18.2975 5.59518 18.2975 6.04427V9.31037C18.2975 9.54172 18.2192 9.73564 18.0627 9.89214C17.9062 10.0486 17.7123 10.1269 17.4809 10.1269H5.23305V19.1087Z" fill="#333638"/>
<path id="Vector_2" d="M7.21313 18.7821C7.21313 19.0134 7.28798 19.2039 7.43768 19.3536C7.60098 19.5169 7.79491 19.5952 8.01945 19.5884C8.244 19.5816 8.43112 19.5033 8.58081 19.3536L12.5001 15.4343L14.2148 17.149C14.5278 17.462 14.9123 17.6185 15.3682 17.6185C15.8241 17.6185 16.2085 17.462 16.5215 17.149L20.1551 13.4951C20.3184 13.3317 20.4 13.1378 20.4 12.9133C20.4 12.6887 20.3184 12.4948 20.1551 12.3315C19.9918 12.1682 19.8012 12.0865 19.5835 12.0865C19.3657 12.0865 19.1752 12.1682 19.0119 12.3315L15.358 15.9855L13.6637 14.2912C13.3507 13.9782 12.9628 13.8217 12.5001 13.8217C12.0374 13.8217 11.6496 13.9782 11.3366 14.2912L7.43768 18.2105C7.28798 18.3602 7.21313 18.5507 7.21313 18.7821Z" fill="#333638"/>
</g>
</svg>
